<svg xmlns="http://www.w3.org/2000/svg" xmlns:cc="http://web.resource.org/cc/" xmlns:svg="http://www.w3.org/2000/svg" xmlns:xlink="http://www.w3.org/1999/xlink" id="svg2" width="59.21" height="52.5" version="1.0"><defs id="defs4"><linearGradient id="linearGradient11077"><stop style="stop-color:#fff;stop-opacity:1" id="stop11079" offset="0"/><stop style="stop-color:#d79988;stop-opacity:1" id="stop11081" offset="1"/></linearGradient><linearGradient id="linearGradient8147"><stop id="stop8151" offset="0" style="stop-color:#adbcff;stop-opacity:1"/><stop id="stop8149" offset="1" style="stop-color:#060c79;stop-opacity:1"/></linearGradient><linearGradient id="linearGradient5183"><stop style="stop-color:#f6d6ce;stop-opacity:1" id="stop5185" offset="0"/><stop id="stop7132" offset=".08" style="stop-color:#f6d6ce;stop-opacity:1"/><stop id="stop7130" offset=".595" style="stop-color:#b64627;stop-opacity:1"/><stop style="stop-color:#9b391e;stop-opacity:1" id="stop5187" offset="1"/></linearGradient><radialGradient id="radialGradient5189" cx="176.953" cy="142.031" r="8.513" fx="176.953" fy="142.031" gradientTransform="matrix(0.7341717,0.7341702,-0.7071056,0.707108,147.46968,-88.31393)" gradientUnits="userSpaceOnUse" xlink:href="#linearGradient5183"/><radialGradient id="radialGradient8155" cx="156.85" cy="193.93" r="28" fx="156.85" fy="193.93" gradientTransform="matrix(0,0.7932643,-0.813875,0,227.83449,-84.882969)" gradientUnits="userSpaceOnUse" xlink:href="#linearGradient8147"/><radialGradient id="radialGradient10104" cx="156.85" cy="193.93" r="28" fx="156.85" fy="193.93" gradientTransform="matrix(0,0.7932643,-0.813875,0,227.83449,-84.882969)" gradientUnits="userSpaceOnUse" xlink:href="#linearGradient8147"/><radialGradient id="radialGradient10106" cx="176.953" cy="142.031" r="8.513" fx="176.953" fy="142.031" gradientTransform="matrix(0.7341717,0.7341702,-0.7071056,0.707108,57.46968,-246.31393)" gradientUnits="userSpaceOnUse" xlink:href="#linearGradient5183"/><radialGradient id="radialGradient11083" cx="147.204" cy="218.016" r="22.241" fx="147.204" fy="218.016" gradientTransform="matrix(2.1666565e-2,-0.6556982,1.0681498,3.5295357e-2,-162.81267,146.68848)" gradientUnits="userSpaceOnUse" xlink:href="#linearGradient11077"/></defs><metadata id="metadata7"/><g id="layer1" transform="translate(-39.790172,-16.11218)"><path style="fill:url(#radialGradient8155);fill-opacity:1;fill-rule:evenodd;stroke:#000;stroke-width:2.5;stroke-linecap:butt;stroke-linejoin:miter;stroke-miterlimit:4;stroke-dasharray:none;stroke-opacity:1" id="path3239" d="M 43,17.36218 L 58.46429,17.36218 L 69,35.36218 L 71,35.36218 L 82.25,17.36218 L 97,17.36218 L 77,44.46932 L 77,67.36218 L 63,67.36218 L 63,44.34432 L 43,17.36218 z"/><path style="opacity:1;color:#000;fill:url(#radialGradient10106);fill-opacity:1;fill-rule:evenodd;stroke:url(#radialGradient11083);stroke-width:2;stroke-linecap:round;stroke-linejoin:round;marker:none;marker-start:none;marker-mid:none;marker-end:none;stroke-miterlimit:4;stroke-dasharray:none;stroke-dashoffset:0;stroke-opacity:1;visibility:visible;display:inline;overflow:visible;enable-background:accumulate" id="path5181" d="M 81.25269,53.02118 C 82.81449,53.10726 84.23508,55.09609 82.42459,56.68504 C 80.0516,58.33649 71.54941,62.132 59.25,61.65682 C 25.57769,60.34927 41.94642,22.00504 76.46429,22.36218 C 46.69644,24.41575 32.36627,56.09108 60.44643,55.75503 C 72.39096,55.61163 78.26161,52.84262 81.25269,53.02118 z"/><path style="fill:url(#radialGradient10104);fill-opacity:1;fill-rule:evenodd;stroke:#000;stroke-width:2.5;stroke-linecap:butt;stroke-linejoin:miter;stroke-miterlimit:4;stroke-dasharray:none;stroke-opacity:1" id="path10097" d="M 77,50.375 L 77,44.46875 L 97,17.375 L 82.25,17.375 L 71,35.375 L 69,35.375 L 58.46875,17.375 L 43,17.375 L 63,44.34375 L 63,50.375"/><path style="opacity:1;color:#000;fill:url(#radialGradient5189);fill-opacity:1;fill-rule:evenodd;stroke:#832e18;stroke-width:2;stroke-linecap:round;stroke-linejoin:round;marker:none;marker-start:none;marker-mid:none;marker-end:none;stroke-miterlimit:4;stroke-dasharray:none;stroke-dashoffset:0;stroke-opacity:1;visibility:visible;display:inline;overflow:visible;enable-background:accumulate" id="path4210" d="M 188.01464 144.80325 A 7.5130095 7.5130095 0 1 1 172.98862,144.80325 A 7.5130095 7.5130095 0 1 1 188.01464 144.80325 z" transform="matrix(1.0572054,0,0,1.0572054,-100.8273,-104.7246)"/></g></svg>